<svg width="368" height="368" xmlns="http://www.w3.org/2000/svg" xmlns:xlink="http://www.w3.org/1999/xlink"><use xlink:href="#path0_fill" fill="url(#paint0_linear)"/><g filter="url(#filter0_d)" transform="translate(989 -22)"><use xlink:href="#path1_fill" transform="translate(-839.679 72)" fill="url(#paint2_linear)"/><use xlink:href="#path1_fill" transform="matrix(-1 0 0 1 -766.519 72)" fill="url(#paint3_linear)"/><use xlink:href="#path2_stroke" transform="matrix(0 -1 1 0 -803.099 142.059)" fill="url(#paint4_linear)"/><use xlink:href="#path3_fill" transform="translate(-839.679 142.059)" fill="url(#paint5_linear)"/><use xlink:href="#path4_fill" transform="matrix(.89372 -.44861 .51378 .85792 -905.192 149.034)" fill="url(#paint6_linear)"/><use xlink:href="#path5_fill" transform="matrix(-.9864 .16438 .195 .9808 -839.248 129.785)" fill="url(#paint7_linear)"/><g><use xlink:href="#path6_fill" transform="matrix(.9864 .16438 -.195 .9808 -766.623 129.66)" fill="url(#paint8_linear)"/><use xlink:href="#path7_fill" transform="matrix(-.89372 -.44861 -.51378 .85792 -697.573 150.191)" fill="url(#paint9_linear)"/></g><g><use xlink:href="#path8_fill" transform="translate(-923.251 205.113)" fill="url(#paint10_linear)"/><use xlink:href="#path9_fill" transform="translate(-906.318 205.113)" fill="url(#paint11_linear)"/><use xlink:href="#path10_stroke" transform="rotate(69.695 -597.422 -543.487) skewX(.068)" fill="url(#paint12_linear)"/></g><g><use xlink:href="#path11_fill" transform="matrix(-1 0 0 1 -682.995 205.652)" fill="url(#paint13_linear)"/><use xlink:href="#path9_fill" transform="matrix(-1 0 0 1 -699.198 205.652)" fill="url(#paint14_linear)"/><use xlink:href="#path12_stroke" transform="rotate(110.632 -414.639 -127.433) skewX(-.069)" fill="url(#paint15_linear)"/></g></g><defs><filter id="filter0_d" filterUnits="userSpaceOnUse" x="-926" y="69" width="250" height="269" color-interpolation-filters="sRGB"><feFlood flood-opacity="0" result="BackgroundImageFix"/><feColorMatrix in="SourceAlpha" values="0 0 0 0 0 0 0 0 0 0 0 0 0 0 0 0 0 0 255 0"/><feOffset dx="2" dy="2"/><feGaussianBlur stdDeviation="2"/><feColorMatrix values="0 0 0 0 0 0 0 0 0 0 0 0 0 0 0 0 0 0 0.3 0"/><feBlend in2="BackgroundImageFix" result="effect1_dropShadow"/><feBlend in="SourceGraphic" in2="effect1_dropShadow" result="shape"/></filter><linearGradient id="paint0_linear" x2="1" gradientUnits="userSpaceOnUse" gradientTransform="rotate(134.876 164.018 77.965) scale(447.848)"><stop offset="0" stop-color="#0AF7E6"/><stop offset="1" stop-color="#2B8F88"/></linearGradient><linearGradient id="paint2_linear" x2="1" gradientUnits="userSpaceOnUse" gradientTransform="matrix(-36.5797 80.8378 0 0 36.73 0)"><stop offset="0" stop-color="#F547AF"/><stop offset=".602" stop-color="#EE2EA1"/><stop offset="1" stop-color="#E22AB5"/></linearGradient><linearGradient id="paint3_linear" x2="1" gradientUnits="userSpaceOnUse" gradientTransform="matrix(-18.2899 82.4545 -119.239 -26.5459 96.048 13.273)"><stop offset="0" stop-color="#ED3EA7"/><stop offset="1" stop-color="#D4339B"/></linearGradient><linearGradient id="paint4_linear" x2="1" gradientUnits="userSpaceOnUse" gradientTransform="matrix(-69.5205 10 -658.145 -3938.47 398.593 1959.23)"><stop offset="0" stop-color="#FFF" stop-opacity="0"/><stop offset=".63" stop-color="#FFF" stop-opacity=".46"/><stop offset="1" stop-color="#FFF" stop-opacity="0"/></linearGradient><linearGradient id="paint5_linear" x2="1" gradientUnits="userSpaceOnUse" gradientTransform="matrix(0 68.9815 -99.2827 0 86.372 0)"><stop offset="0" stop-color="#99116D"/><stop offset=".431" stop-color="#BD1A75"/><stop offset="1" stop-color="#D6299B"/></linearGradient><linearGradient id="paint6_linear" x2="1" gradientUnits="userSpaceOnUse" gradientTransform="matrix(-26.5591 192.53 257.32 16.3448 -99.963 -7.618)"><stop offset="0" stop-color="#D932A0"/><stop offset=".483" stop-color="#D42497"/><stop offset="1" stop-color="#5E0945"/></linearGradient><linearGradient id="paint7_linear" x2="1" gradientUnits="userSpaceOnUse" gradientTransform="matrix(-39.0486 185.829 -170.387 -41.0739 126.354 20.5)"><stop offset="0" stop-color="#C91C91"/><stop offset=".379" stop-color="#D11992"/><stop offset="1" stop-color="#750B56"/></linearGradient><linearGradient id="paint8_linear" x2="1" gradientUnits="userSpaceOnUse" gradientTransform="matrix(-39.0486 185.829 -170.387 -41.074 126.721 20.536)"><stop offset="0" stop-color="#C91C91"/><stop offset=".379" stop-color="#D11992"/><stop offset="1" stop-color="#750B56"/></linearGradient><linearGradient id="paint9_linear" x2="1" gradientUnits="userSpaceOnUse" gradientTransform="matrix(-22.7112 191.108 255.778 11.2966 -98.478 -3.008)"><stop offset="0" stop-color="#F743BA"/><stop offset=".408" stop-color="#FA2AB7"/><stop offset="1" stop-color="#751456"/></linearGradient><linearGradient id="paint10_linear" x2="1" gradientUnits="userSpaceOnUse" gradientTransform="matrix(44.6488 125.029 -83.4434 29.9071 64.848 -14.415)"><stop offset="0" stop-color="#F842BA"/><stop offset=".625" stop-color="#B3177F"/><stop offset="1" stop-color="#6E1351"/></linearGradient><linearGradient id="paint11_linear" x2="1" gradientUnits="userSpaceOnUse" gradientTransform="matrix(88.5626 113.712 -93.117 72.7877 52.949 -35.855)"><stop offset="0" stop-color="#BD1E86"/><stop offset="1" stop-color="#9E1870"/></linearGradient><linearGradient id="paint12_linear" x2="1" gradientUnits="userSpaceOnUse" gradientTransform="matrix(133.37 -1.70054 8.41916 658.474 -4.21 -328.545)"><stop offset="0" stop-color="#FFF" stop-opacity="0"/><stop offset=".304" stop-color="#FFF" stop-opacity=".36"/><stop offset=".691" stop-color="#FFF" stop-opacity="0"/></linearGradient><linearGradient id="paint13_linear" x2="1" gradientUnits="userSpaceOnUse" gradientTransform="matrix(44.6487 125.029 -83.4433 29.9071 64.118 -14.415)"><stop offset="0" stop-color="#F842BA"/><stop offset=".625" stop-color="#B3177F"/><stop offset="1" stop-color="#6E1351"/></linearGradient><linearGradient id="paint14_linear" x2="1" gradientUnits="userSpaceOnUse" gradientTransform="matrix(84.9939 107.784 -88.2626 69.8547 54.09 -28.46)"><stop offset="0" stop-color="#BC1E86"/><stop offset="1" stop-color="#9F1770"/></linearGradient><linearGradient id="paint15_linear" x2="1" gradientUnits="userSpaceOnUse" gradientTransform="matrix(132.996 -.06625 .32368 648.015 .152 -297.767)"><stop offset="0" stop-color="#FFF" stop-opacity="0"/><stop offset=".315" stop-color="#FFF" stop-opacity=".25"/><stop offset=".768" stop-color="#FFF" stop-opacity="0"/></linearGradient><path id="path0_fill" fill-rule="evenodd" d="M0 83C0 37.16 37.16 0 83 0h202c45.84 0 83 37.16 83 83v202c0 45.84-37.16 83-83 83H83c-45.84 0-83-37.16-83-83V83z"/><path id="path1_fill" d="M36.58 0v70.06L0 80.837 36.58 0z"/><path id="path2_stroke" d="M0 .125h70.06v-.25H0v.25z"/><path id="path3_fill" d="M36.73 68.981C27.587 32.335 0 10.778 0 10.778L36.58 0l36.58 10.778S41.571 37.724 36.73 68.981z"/><path id="path4_fill" d="M27.559 0c18.38 61.635 17.41 83.79 10.683 135.399L3.814 192.367C-5.708 125.893 2.742 79.472 27.56 0z"/><path id="path5_fill" d="M41.884 0C83.446 129.374 43.3 172.844 0 186.146 29.296 131.732 39.062 75.982 41.884 0z"/><path id="path6_fill" d="M42.643 0C84.205 129.374 43.3 172.972 0 186.273 34.623 121.858 44.369 82.185 42.643 0z"/><path id="path7_fill" d="M30.203 0c10.662 62.532 17.903 115.32 8.032 140.784-11.238 28.989-17.592 36.74-31.131 51.953C-11.318 133.86 9.567 47.391 30.204 0z"/><path id="path8_fill" d="M7.527 91.077c8.266 15.09 51.545 55.272 108.663 21.557C65.086 99.161 32.272 67.904 23.127 0-9.15 43.652-.74 75.987 7.527 91.077z"/><path id="path9_fill" d="M54.07 125.568s22.055 1.078 45.187-12.934C26.097 91.616 13.187 43.652 6.194 0-21.78 98.622 54.07 125.568 54.07 125.568z"/><path id="path10_stroke" d="M-.072.793c23.661 16.797 46.738 25.918 69.01 26.189 22.275.27 43.729-8.312 64.142-26.89l-.169-.184c-20.374 18.542-41.768 27.094-63.97 26.824C46.736 26.462 23.708 17.369.072.59l-.144.203z"/><path id="path11_fill" d="M6.796 91.077c6.455 13.473 51.546 55.272 108.663 21.557C64.356 99.161 31.541 67.904 22.396 0-9.88 43.652.342 77.604 6.797 91.077z"/><path id="path12_stroke" d="M.073 27.035C22.953 10.657 45.187.993 67.16.18c21.969-.813 43.695 7.223 65.563 26.277l.164-.189C110.982 7.182 89.196-.884 67.151-.069 45.111.746 22.83 10.438-.073 26.83l.146.204z"/></defs></svg>